<mxfile host="Electron" modified="2024-05-07T10:32:44.928Z" agent="Mozilla/5.0 (Windows NT 10.0; Win64; x64) AppleWebKit/537.36 (KHTML, like Gecko) draw.io/24.2.5 Chrome/120.0.6099.109 Electron/28.1.0 Safari/537.36" etag="m3FSdyAstNUoQ1QNu1BV" version="24.2.5" type="device">
  <diagram name="Pagina-1" id="xSmZG3m7LG5DPutiz9vn">
    <mxGraphModel dx="1782" dy="565" grid="1" gridSize="10" guides="1" tooltips="1" connect="1" arrows="1" fold="1" page="1" pageScale="1" pageWidth="827" pageHeight="1169" math="0" shadow="0">
      <root>
        <mxCell id="0" />
        <mxCell id="1" parent="0" />
        <mxCell id="6WpTPp30nRusbs1JjVvN-1" style="edgeStyle=orthogonalEdgeStyle;rounded=0;orthogonalLoop=1;jettySize=auto;html=1;exitX=0;exitY=0.5;exitDx=0;exitDy=0;endArrow=oval;endFill=0;" parent="1" source="6WpTPp30nRusbs1JjVvN-2" edge="1">
          <mxGeometry relative="1" as="geometry">
            <mxPoint x="-179.55" y="724.03" as="targetPoint" />
            <Array as="points">
              <mxPoint x="-156.55" y="724.03" />
            </Array>
          </mxGeometry>
        </mxCell>
        <mxCell id="6WpTPp30nRusbs1JjVvN-2" value="Abbigliamento" style="whiteSpace=wrap;html=1;align=center;" parent="1" vertex="1">
          <mxGeometry x="-157.05" y="697.78" width="85" height="30" as="geometry" />
        </mxCell>
        <mxCell id="6WpTPp30nRusbs1JjVvN-4" value="&lt;font style=&quot;font-size: 8px;&quot;&gt;Esperienza&lt;/font&gt;" style="text;html=1;align=center;verticalAlign=middle;whiteSpace=wrap;rounded=1;strokeColor=none;" parent="1" vertex="1">
          <mxGeometry x="-819.0999999999999" y="756.04" width="49" height="23" as="geometry" />
        </mxCell>
        <mxCell id="6WpTPp30nRusbs1JjVvN-5" value="&lt;font style=&quot;font-size: 9px;&quot;&gt;Materiale&lt;/font&gt;" style="text;html=1;align=center;verticalAlign=middle;whiteSpace=wrap;rounded=0;" parent="1" vertex="1">
          <mxGeometry x="-219.55" y="695.78" width="35" height="15" as="geometry" />
        </mxCell>
        <mxCell id="6WpTPp30nRusbs1JjVvN-9" value="&lt;font style=&quot;font-size: 8px;&quot;&gt;(1,N)&lt;/font&gt;" style="text;html=1;align=center;verticalAlign=middle;whiteSpace=wrap;rounded=1;strokeColor=none;glass=0;" parent="1" vertex="1">
          <mxGeometry x="-79.55000000000001" y="702.78" width="50" height="15" as="geometry" />
        </mxCell>
        <mxCell id="6WpTPp30nRusbs1JjVvN-10" style="edgeStyle=orthogonalEdgeStyle;rounded=0;orthogonalLoop=1;jettySize=auto;html=1;exitX=0;exitY=0.25;exitDx=0;exitDy=0;endArrow=oval;endFill=1;" parent="1" edge="1">
          <mxGeometry relative="1" as="geometry">
            <mxPoint x="-769.5999999999999" y="757.98" as="targetPoint" />
            <mxPoint x="-749.5999999999999" y="757.75" as="sourcePoint" />
            <Array as="points">
              <mxPoint x="-759.5999999999999" y="757.98" />
            </Array>
          </mxGeometry>
        </mxCell>
        <mxCell id="6WpTPp30nRusbs1JjVvN-11" value="&lt;font style=&quot;font-size: 8px;&quot;&gt;Nickname&lt;/font&gt;" style="text;html=1;align=center;verticalAlign=middle;whiteSpace=wrap;rounded=1;strokeColor=none;" parent="1" vertex="1">
          <mxGeometry x="-809.5999999999999" y="743.98" width="30" height="23.5" as="geometry" />
        </mxCell>
        <mxCell id="6WpTPp30nRusbs1JjVvN-12" value="&lt;font style=&quot;font-size: 9px;&quot;&gt;Descrizione&lt;/font&gt;" style="text;html=1;align=center;verticalAlign=middle;whiteSpace=wrap;rounded=0;" parent="1" vertex="1">
          <mxGeometry x="-229.55" y="712.78" width="40" height="17" as="geometry" />
        </mxCell>
        <mxCell id="6WpTPp30nRusbs1JjVvN-13" value="&lt;font style=&quot;font-size: 9px;&quot;&gt;Colore&lt;/font&gt;" style="text;html=1;align=center;verticalAlign=middle;whiteSpace=wrap;rounded=0;" parent="1" vertex="1">
          <mxGeometry x="-42.05000000000001" y="710.78" width="40" height="17" as="geometry" />
        </mxCell>
        <mxCell id="6WpTPp30nRusbs1JjVvN-14" style="edgeStyle=orthogonalEdgeStyle;rounded=0;orthogonalLoop=1;jettySize=auto;html=1;exitX=1.011;exitY=0.878;exitDx=0;exitDy=0;endArrow=oval;endFill=0;exitPerimeter=0;" parent="1" edge="1">
          <mxGeometry relative="1" as="geometry">
            <mxPoint x="-72.04500000000007" y="721.23" as="sourcePoint" />
            <mxPoint x="-40.48000000000002" y="721.14" as="targetPoint" />
            <Array as="points">
              <mxPoint x="-60.48000000000002" y="721.14" />
              <mxPoint x="-60.48000000000002" y="721.14" />
            </Array>
          </mxGeometry>
        </mxCell>
        <mxCell id="6WpTPp30nRusbs1JjVvN-15" value="&lt;font style=&quot;font-size: 9px;&quot;&gt;Nome&lt;/font&gt;" style="text;html=1;align=center;verticalAlign=middle;whiteSpace=wrap;rounded=0;" parent="1" vertex="1">
          <mxGeometry x="-164.55" y="654.03" width="40" height="17" as="geometry" />
        </mxCell>
        <mxCell id="6WpTPp30nRusbs1JjVvN-16" style="edgeStyle=orthogonalEdgeStyle;rounded=0;orthogonalLoop=1;jettySize=auto;html=1;endArrow=oval;endFill=0;" parent="1" edge="1">
          <mxGeometry relative="1" as="geometry">
            <mxPoint x="-157.05" y="705.4" as="sourcePoint" />
            <mxPoint x="-179.05" y="705.15" as="targetPoint" />
            <Array as="points">
              <mxPoint x="-157.05" y="705.4" />
              <mxPoint x="-156.05" y="705.4" />
            </Array>
          </mxGeometry>
        </mxCell>
        <mxCell id="6WpTPp30nRusbs1JjVvN-17" style="edgeStyle=orthogonalEdgeStyle;rounded=0;orthogonalLoop=1;jettySize=auto;html=1;endArrow=oval;endFill=1;" parent="1" edge="1">
          <mxGeometry relative="1" as="geometry">
            <mxPoint x="-144.55" y="697.78" as="sourcePoint" />
            <mxPoint x="-144.55" y="674.03" as="targetPoint" />
            <Array as="points">
              <mxPoint x="-144.55" y="697.78" />
            </Array>
          </mxGeometry>
        </mxCell>
        <mxCell id="6WpTPp30nRusbs1JjVvN-23" value="" style="shape=flexArrow;endArrow=classic;html=1;rounded=0;fillColor=#000000;endWidth=19.23076923076923;endSize=3.848717948717949;exitX=0.513;exitY=0.543;exitDx=0;exitDy=0;exitPerimeter=0;" parent="1" source="6WpTPp30nRusbs1JjVvN-25" edge="1">
          <mxGeometry width="50" height="50" relative="1" as="geometry">
            <mxPoint x="-114.55000000000001" y="754.03" as="sourcePoint" />
            <mxPoint x="-114.70999999999998" y="727.78" as="targetPoint" />
          </mxGeometry>
        </mxCell>
        <mxCell id="6WpTPp30nRusbs1JjVvN-24" value="&lt;font style=&quot;font-size: 9px;&quot;&gt;Stile&lt;/font&gt;" style="text;html=1;align=center;verticalAlign=middle;whiteSpace=wrap;rounded=0;" parent="1" vertex="1">
          <mxGeometry x="-252" y="760" width="40" height="15" as="geometry" />
        </mxCell>
        <mxCell id="6WpTPp30nRusbs1JjVvN-25" value="" style="line;strokeWidth=1;rotatable=0;dashed=0;labelPosition=right;align=left;verticalAlign=middle;spacingTop=0;spacingLeft=6;points=[];portConstraint=eastwest;" parent="1" vertex="1">
          <mxGeometry x="-185.55" y="748.28" width="138" height="10" as="geometry" />
        </mxCell>
        <mxCell id="6WpTPp30nRusbs1JjVvN-27" value="&lt;font style=&quot;font-size: 8px;&quot;&gt;Ora&lt;/font&gt;" style="text;html=1;align=center;verticalAlign=middle;whiteSpace=wrap;rounded=1;strokeColor=none;glass=0;" parent="1" vertex="1">
          <mxGeometry x="-388.95" y="592.5899999999999" width="30" height="11.5" as="geometry" />
        </mxCell>
        <mxCell id="6WpTPp30nRusbs1JjVvN-28" style="edgeStyle=orthogonalEdgeStyle;rounded=0;orthogonalLoop=1;jettySize=auto;html=1;exitX=1;exitY=1;exitDx=0;exitDy=0;endArrow=oval;endFill=0;" parent="1" edge="1">
          <mxGeometry relative="1" as="geometry">
            <mxPoint x="-408.12362007710925" y="599.6632645518719" as="sourcePoint" />
            <mxPoint x="-386.95" y="599.5199999999999" as="targetPoint" />
          </mxGeometry>
        </mxCell>
        <mxCell id="6WpTPp30nRusbs1JjVvN-29" value="&lt;font style=&quot;font-size: 8px;&quot;&gt;Data&lt;/font&gt;" style="text;html=1;align=center;verticalAlign=middle;whiteSpace=wrap;rounded=1;strokeColor=none;glass=0;" parent="1" vertex="1">
          <mxGeometry x="-388.95" y="583.7199999999999" width="30" height="6.5" as="geometry" />
        </mxCell>
        <mxCell id="6WpTPp30nRusbs1JjVvN-30" style="edgeStyle=orthogonalEdgeStyle;rounded=0;orthogonalLoop=1;jettySize=auto;html=1;exitX=1;exitY=0;exitDx=0;exitDy=0;entryX=0.086;entryY=0.404;entryDx=0;entryDy=0;entryPerimeter=0;endArrow=oval;endFill=0;" parent="1" source="6WpTPp30nRusbs1JjVvN-71" target="6WpTPp30nRusbs1JjVvN-29" edge="1">
          <mxGeometry relative="1" as="geometry" />
        </mxCell>
        <mxCell id="6WpTPp30nRusbs1JjVvN-36" value="" style="endArrow=none;html=1;rounded=0;exitX=0.5;exitY=0;exitDx=0;exitDy=0;" parent="1" source="6WpTPp30nRusbs1JjVvN-58" edge="1">
          <mxGeometry width="50" height="50" relative="1" as="geometry">
            <mxPoint x="-542.41" y="685.4399999999999" as="sourcePoint" />
            <mxPoint x="-486.96" y="680.34" as="targetPoint" />
          </mxGeometry>
        </mxCell>
        <mxCell id="6WpTPp30nRusbs1JjVvN-37" value="" style="endArrow=none;html=1;rounded=0;" parent="1" edge="1">
          <mxGeometry width="50" height="50" relative="1" as="geometry">
            <mxPoint x="-487.46" y="680.34" as="sourcePoint" />
            <mxPoint x="-360.96" y="680.4399999999999" as="targetPoint" />
          </mxGeometry>
        </mxCell>
        <mxCell id="6WpTPp30nRusbs1JjVvN-38" value="" style="shape=singleArrow;direction=north;whiteSpace=wrap;html=1;arrowWidth=0.3808905843098993;arrowSize=0.6576580700573631;" parent="1" vertex="1">
          <mxGeometry x="-438.94999999999993" y="662.82" width="30.92" height="17.37" as="geometry" />
        </mxCell>
        <mxCell id="6WpTPp30nRusbs1JjVvN-39" value="" style="endArrow=none;html=1;rounded=0;entryX=0.476;entryY=-0.004;entryDx=0;entryDy=0;entryPerimeter=0;" parent="1" target="6WpTPp30nRusbs1JjVvN-94" edge="1">
          <mxGeometry width="50" height="50" relative="1" as="geometry">
            <mxPoint x="-360.96" y="680.34" as="sourcePoint" />
            <mxPoint x="-282.41" y="635.4399999999999" as="targetPoint" />
          </mxGeometry>
        </mxCell>
        <mxCell id="6WpTPp30nRusbs1JjVvN-40" style="edgeStyle=orthogonalEdgeStyle;rounded=0;orthogonalLoop=1;jettySize=auto;html=1;exitX=0.5;exitY=1;exitDx=0;exitDy=0;" parent="1" edge="1">
          <mxGeometry relative="1" as="geometry">
            <mxPoint x="-537.1799999999998" y="613.33" as="sourcePoint" />
            <mxPoint x="-537.1799999999998" y="613.33" as="targetPoint" />
          </mxGeometry>
        </mxCell>
        <mxCell id="6WpTPp30nRusbs1JjVvN-41" value="&lt;font style=&quot;font-size: 8px;&quot;&gt;(1,N)&lt;/font&gt;" style="text;html=1;align=center;verticalAlign=middle;whiteSpace=wrap;rounded=1;strokeColor=none;glass=0;" parent="1" vertex="1">
          <mxGeometry x="-602.1299999999999" y="633.0500000000001" width="22.5" height="8.79" as="geometry" />
        </mxCell>
        <mxCell id="6WpTPp30nRusbs1JjVvN-42" style="edgeStyle=orthogonalEdgeStyle;rounded=0;orthogonalLoop=1;jettySize=auto;html=1;exitX=0.5;exitY=1;exitDx=0;exitDy=0;" parent="1" edge="1">
          <mxGeometry relative="1" as="geometry">
            <mxPoint x="-610.7399999999999" y="669.1" as="sourcePoint" />
            <mxPoint x="-610.7399999999999" y="669.1" as="targetPoint" />
          </mxGeometry>
        </mxCell>
        <mxCell id="6WpTPp30nRusbs1JjVvN-43" value="&lt;font style=&quot;font-size: 8px;&quot;&gt;(1,1)&lt;/font&gt;" style="text;html=1;align=center;verticalAlign=middle;whiteSpace=wrap;rounded=1;strokeColor=none;glass=0;" parent="1" vertex="1">
          <mxGeometry x="-665.42" y="693.57" width="22.5" height="8.79" as="geometry" />
        </mxCell>
        <mxCell id="6WpTPp30nRusbs1JjVvN-44" style="edgeStyle=orthogonalEdgeStyle;rounded=0;orthogonalLoop=1;jettySize=auto;html=1;exitX=0.5;exitY=1;exitDx=0;exitDy=0;" parent="1" edge="1">
          <mxGeometry relative="1" as="geometry">
            <mxPoint x="-276.15999999999997" y="620.2800000000001" as="sourcePoint" />
            <mxPoint x="-276.15999999999997" y="620.2800000000001" as="targetPoint" />
          </mxGeometry>
        </mxCell>
        <mxCell id="6WpTPp30nRusbs1JjVvN-45" value="&lt;font style=&quot;font-size: 8px;&quot;&gt;(0,N)&lt;/font&gt;" style="text;html=1;align=center;verticalAlign=middle;whiteSpace=wrap;rounded=1;strokeColor=none;glass=0;" parent="1" vertex="1">
          <mxGeometry x="-280" y="667.11" width="22.5" height="8.79" as="geometry" />
        </mxCell>
        <mxCell id="6WpTPp30nRusbs1JjVvN-48" style="edgeStyle=orthogonalEdgeStyle;rounded=0;orthogonalLoop=1;jettySize=auto;html=1;exitX=0;exitY=0.25;exitDx=0;exitDy=0;endArrow=oval;endFill=0;" parent="1" edge="1">
          <mxGeometry relative="1" as="geometry">
            <mxPoint x="-769.5999999999999" y="769.4000000000001" as="targetPoint" />
            <mxPoint x="-749.5999999999999" y="769.1700000000001" as="sourcePoint" />
            <Array as="points">
              <mxPoint x="-759.5999999999999" y="769.4000000000001" />
            </Array>
          </mxGeometry>
        </mxCell>
        <mxCell id="6WpTPp30nRusbs1JjVvN-50" value="Accessorio" style="whiteSpace=wrap;html=1;align=center;" parent="1" vertex="1">
          <mxGeometry x="-84.87" y="753.3" width="67.5" height="20" as="geometry" />
        </mxCell>
        <mxCell id="6WpTPp30nRusbs1JjVvN-51" style="edgeStyle=orthogonalEdgeStyle;rounded=0;orthogonalLoop=1;jettySize=auto;html=1;exitX=1.001;exitY=0.609;exitDx=0;exitDy=0;endArrow=oval;endFill=0;exitPerimeter=0;" parent="1" edge="1">
          <mxGeometry relative="1" as="geometry">
            <mxPoint x="-17.37250000000001" y="763.0999999999998" as="sourcePoint" />
            <mxPoint x="-4.940000000000005" y="762.85" as="targetPoint" />
          </mxGeometry>
        </mxCell>
        <mxCell id="6WpTPp30nRusbs1JjVvN-52" style="edgeStyle=orthogonalEdgeStyle;rounded=0;orthogonalLoop=1;jettySize=auto;html=1;exitX=1.001;exitY=0.609;exitDx=0;exitDy=0;endArrow=oval;endFill=0;exitPerimeter=0;" parent="1" edge="1">
          <mxGeometry relative="1" as="geometry">
            <mxPoint x="-205.67999999999998" y="770.0000000000002" as="sourcePoint" />
            <mxPoint x="-217.68" y="770.0100000000002" as="targetPoint" />
          </mxGeometry>
        </mxCell>
        <mxCell id="6WpTPp30nRusbs1JjVvN-97" style="edgeStyle=orthogonalEdgeStyle;rounded=0;orthogonalLoop=1;jettySize=auto;html=1;exitX=1;exitY=0.5;exitDx=0;exitDy=0;entryX=0;entryY=0.5;entryDx=0;entryDy=0;endArrow=none;endFill=0;" parent="1" source="6WpTPp30nRusbs1JjVvN-54" target="6WpTPp30nRusbs1JjVvN-72" edge="1">
          <mxGeometry relative="1" as="geometry" />
        </mxCell>
        <mxCell id="6WpTPp30nRusbs1JjVvN-54" value="A-V" style="shape=rhombus;perimeter=rhombusPerimeter;whiteSpace=wrap;html=1;align=center;" parent="1" vertex="1">
          <mxGeometry x="-584.3499999999999" y="627.3499999999999" width="73.56" height="42.36" as="geometry" />
        </mxCell>
        <mxCell id="0MlmY-CvEOikeziY9pyS-4" style="edgeStyle=orthogonalEdgeStyle;rounded=0;orthogonalLoop=1;jettySize=auto;html=1;exitX=0.5;exitY=1;exitDx=0;exitDy=0;entryX=0.5;entryY=1;entryDx=0;entryDy=0;endArrow=none;endFill=0;" edge="1" parent="1" source="6WpTPp30nRusbs1JjVvN-55" target="6WpTPp30nRusbs1JjVvN-56">
          <mxGeometry relative="1" as="geometry" />
        </mxCell>
        <mxCell id="6WpTPp30nRusbs1JjVvN-55" value="V-A" style="shape=rhombus;perimeter=rhombusPerimeter;whiteSpace=wrap;html=1;align=center;" parent="1" vertex="1">
          <mxGeometry x="-325.56000000000006" y="627.35" width="73.56" height="42.36" as="geometry" />
        </mxCell>
        <mxCell id="6WpTPp30nRusbs1JjVvN-56" value="Abito" style="whiteSpace=wrap;html=1;align=center;" parent="1" vertex="1">
          <mxGeometry x="-207" y="753.3" width="57.5" height="20" as="geometry" />
        </mxCell>
        <mxCell id="6WpTPp30nRusbs1JjVvN-58" value="Vestizione&lt;div&gt;corrente&lt;/div&gt;" style="whiteSpace=wrap;html=1;align=center;" parent="1" vertex="1">
          <mxGeometry x="-524.73" y="693.57" width="75.33" height="29.25" as="geometry" />
        </mxCell>
        <mxCell id="dvlk06-uyZmQ9Ea2KZN_-7" style="edgeStyle=orthogonalEdgeStyle;rounded=0;orthogonalLoop=1;jettySize=auto;html=1;exitX=1;exitY=0.5;exitDx=0;exitDy=0;entryX=0;entryY=0.5;entryDx=0;entryDy=0;endArrow=none;endFill=0;" parent="1" source="6WpTPp30nRusbs1JjVvN-59" target="6WpTPp30nRusbs1JjVvN-58" edge="1">
          <mxGeometry relative="1" as="geometry" />
        </mxCell>
        <mxCell id="6WpTPp30nRusbs1JjVvN-59" value="A-Vcor" style="shape=rhombus;perimeter=rhombusPerimeter;whiteSpace=wrap;html=1;align=center;" parent="1" vertex="1">
          <mxGeometry x="-646.24" y="687.0199999999999" width="73.56" height="42.36" as="geometry" />
        </mxCell>
        <mxCell id="6WpTPp30nRusbs1JjVvN-96" style="edgeStyle=orthogonalEdgeStyle;rounded=0;orthogonalLoop=1;jettySize=auto;html=1;exitX=0.5;exitY=0;exitDx=0;exitDy=0;entryX=0;entryY=0.5;entryDx=0;entryDy=0;endArrow=none;endFill=0;" parent="1" source="6WpTPp30nRusbs1JjVvN-61" target="6WpTPp30nRusbs1JjVvN-54" edge="1">
          <mxGeometry relative="1" as="geometry" />
        </mxCell>
        <mxCell id="dvlk06-uyZmQ9Ea2KZN_-6" style="edgeStyle=orthogonalEdgeStyle;rounded=0;orthogonalLoop=1;jettySize=auto;html=1;exitX=0.75;exitY=0;exitDx=0;exitDy=0;entryX=0;entryY=0.5;entryDx=0;entryDy=0;endArrow=none;endFill=0;" parent="1" source="6WpTPp30nRusbs1JjVvN-61" target="6WpTPp30nRusbs1JjVvN-59" edge="1">
          <mxGeometry relative="1" as="geometry" />
        </mxCell>
        <mxCell id="6WpTPp30nRusbs1JjVvN-61" value="Avatar" style="whiteSpace=wrap;html=1;align=center;" parent="1" vertex="1">
          <mxGeometry x="-749.5999999999999" y="747.98" width="60" height="30" as="geometry" />
        </mxCell>
        <mxCell id="6WpTPp30nRusbs1JjVvN-62" value="&lt;span style=&quot;font-size: 8px;&quot;&gt;(1,1)&lt;/span&gt;" style="text;html=1;align=center;verticalAlign=middle;whiteSpace=wrap;rounded=1;strokeColor=none;glass=0;" parent="1" vertex="1">
          <mxGeometry x="-341.45" y="634.0700000000002" width="22.5" height="6.75" as="geometry" />
        </mxCell>
        <mxCell id="6WpTPp30nRusbs1JjVvN-63" value="&lt;span style=&quot;font-size: 8px;&quot;&gt;(1,1)&lt;/span&gt;" style="text;html=1;align=center;verticalAlign=middle;whiteSpace=wrap;rounded=1;strokeColor=none;glass=0;" parent="1" vertex="1">
          <mxGeometry x="-520.46" y="631.7800000000001" width="22.5" height="6.75" as="geometry" />
        </mxCell>
        <mxCell id="6WpTPp30nRusbs1JjVvN-64" value="&lt;span style=&quot;font-size: 8px;&quot;&gt;(1,1)&lt;/span&gt;" style="text;html=1;align=center;verticalAlign=middle;whiteSpace=wrap;rounded=1;strokeColor=none;glass=0;" parent="1" vertex="1">
          <mxGeometry x="-579.63" y="693.57" width="22.5" height="6.75" as="geometry" />
        </mxCell>
        <mxCell id="6WpTPp30nRusbs1JjVvN-70" value="" style="endArrow=none;html=1;rounded=0;exitX=0.5;exitY=1;exitDx=0;exitDy=0;" parent="1" edge="1">
          <mxGeometry width="50" height="50" relative="1" as="geometry">
            <mxPoint x="-421.92" y="596.74" as="sourcePoint" />
            <mxPoint x="-421.92" y="636.74" as="targetPoint" />
          </mxGeometry>
        </mxCell>
        <mxCell id="6WpTPp30nRusbs1JjVvN-71" value="&lt;p style=&quot;line-height: 110%;&quot;&gt;&lt;font style=&quot;font-size: 7px;&quot;&gt;DataInizio&lt;/font&gt;&lt;/p&gt;" style="ellipse;whiteSpace=wrap;html=1;" parent="1" vertex="1">
          <mxGeometry x="-438.95" y="584.0899999999999" width="36.12" height="20" as="geometry" />
        </mxCell>
        <mxCell id="6WpTPp30nRusbs1JjVvN-98" style="edgeStyle=orthogonalEdgeStyle;rounded=0;orthogonalLoop=1;jettySize=auto;html=1;exitX=1;exitY=0.5;exitDx=0;exitDy=0;entryX=0;entryY=0.5;entryDx=0;entryDy=0;endArrow=none;endFill=0;" parent="1" source="6WpTPp30nRusbs1JjVvN-72" target="6WpTPp30nRusbs1JjVvN-55" edge="1">
          <mxGeometry relative="1" as="geometry" />
        </mxCell>
        <mxCell id="6WpTPp30nRusbs1JjVvN-72" value="Vestizione" style="whiteSpace=wrap;html=1;align=center;" parent="1" vertex="1">
          <mxGeometry x="-471.78" y="633.0500000000001" width="96.58" height="28.87" as="geometry" />
        </mxCell>
        <mxCell id="6WpTPp30nRusbs1JjVvN-74" value="" style="curved=1;endArrow=oval;html=1;rounded=0;endFill=1;" parent="1" edge="1">
          <mxGeometry width="50" height="50" relative="1" as="geometry">
            <mxPoint x="-405.22999999999996" y="618.1899999999999" as="sourcePoint" />
            <mxPoint x="-491.3499999999999" y="662.0899999999999" as="targetPoint" />
            <Array as="points">
              <mxPoint x="-489.0999999999999" y="619.0899999999999" />
              <mxPoint x="-491.3499999999999" y="668.6899999999999" />
            </Array>
          </mxGeometry>
        </mxCell>
        <mxCell id="6WpTPp30nRusbs1JjVvN-88" value="&lt;font style=&quot;font-size: 8px;&quot;&gt;Ora&lt;/font&gt;" style="text;html=1;align=center;verticalAlign=middle;whiteSpace=wrap;rounded=1;strokeColor=none;glass=0;" parent="1" vertex="1">
          <mxGeometry x="-325.2" y="749.0799999999999" width="30" height="11.5" as="geometry" />
        </mxCell>
        <mxCell id="6WpTPp30nRusbs1JjVvN-89" style="edgeStyle=orthogonalEdgeStyle;rounded=0;orthogonalLoop=1;jettySize=auto;html=1;exitX=1;exitY=1;exitDx=0;exitDy=0;endArrow=oval;endFill=0;" parent="1" edge="1">
          <mxGeometry relative="1" as="geometry">
            <mxPoint x="-344.37362007710925" y="756.1532645518719" as="sourcePoint" />
            <mxPoint x="-323.2" y="756.0099999999999" as="targetPoint" />
          </mxGeometry>
        </mxCell>
        <mxCell id="6WpTPp30nRusbs1JjVvN-90" value="&lt;font style=&quot;font-size: 8px;&quot;&gt;Data&lt;/font&gt;" style="text;html=1;align=center;verticalAlign=middle;whiteSpace=wrap;rounded=1;strokeColor=none;glass=0;" parent="1" vertex="1">
          <mxGeometry x="-325.2" y="740.2099999999999" width="30" height="6.5" as="geometry" />
        </mxCell>
        <mxCell id="6WpTPp30nRusbs1JjVvN-91" style="edgeStyle=orthogonalEdgeStyle;rounded=0;orthogonalLoop=1;jettySize=auto;html=1;exitX=1;exitY=0;exitDx=0;exitDy=0;entryX=0.086;entryY=0.404;entryDx=0;entryDy=0;entryPerimeter=0;endArrow=oval;endFill=0;" parent="1" source="6WpTPp30nRusbs1JjVvN-92" target="6WpTPp30nRusbs1JjVvN-90" edge="1">
          <mxGeometry relative="1" as="geometry" />
        </mxCell>
        <mxCell id="6WpTPp30nRusbs1JjVvN-92" value="&lt;p style=&quot;line-height: 110%;&quot;&gt;&lt;font style=&quot;font-size: 7px;&quot;&gt;DataFine&lt;/font&gt;&lt;/p&gt;" style="ellipse;whiteSpace=wrap;html=1;" parent="1" vertex="1">
          <mxGeometry x="-375.2" y="740.5799999999999" width="36.12" height="20" as="geometry" />
        </mxCell>
        <mxCell id="6WpTPp30nRusbs1JjVvN-93" value="" style="endArrow=none;html=1;rounded=0;" parent="1" edge="1">
          <mxGeometry width="50" height="50" relative="1" as="geometry">
            <mxPoint x="-357.64" y="712.43" as="sourcePoint" />
            <mxPoint x="-357.38" y="740.58" as="targetPoint" />
          </mxGeometry>
        </mxCell>
        <mxCell id="6WpTPp30nRusbs1JjVvN-94" value="Vestizione&lt;div&gt;passata&lt;/div&gt;" style="whiteSpace=wrap;html=1;align=center;" parent="1" vertex="1">
          <mxGeometry x="-399.28" y="693.57" width="80.33" height="29.25" as="geometry" />
        </mxCell>
        <mxCell id="6WpTPp30nRusbs1JjVvN-99" value="&lt;font style=&quot;font-size: 9px;&quot;&gt;Scopo&lt;/font&gt;" style="text;html=1;align=center;verticalAlign=middle;whiteSpace=wrap;rounded=0;" parent="1" vertex="1">
          <mxGeometry x="-7.3700000000000045" y="753" width="40" height="17" as="geometry" />
        </mxCell>
      </root>
    </mxGraphModel>
  </diagram>
</mxfile>
